<svg aria-hidden="true" style="position: absolute; width: 0; height: 0; overflow: hidden;" version="1.1" xmlns="http://www.w3.org/2000/svg" xmlns:xlink="http://www.w3.org/1999/xlink">
<defs>
<symbol id="alarm-clock" viewBox="0 0 32 32">
<path fill="#03a66b" style="fill: var(--color1, #03a66b)" d="M16 4.813c6.728 0 12.203 5.474 12.203 12.203s-5.474 12.203-12.203 12.203c-6.729 0-12.203-5.474-12.203-12.203s5.474-12.203 12.203-12.203zM16 27.008c5.509 0 9.991-4.482 9.991-9.991s-4.482-9.991-9.991-9.991c-5.509 0-9.991 4.482-9.991 9.991s4.482 9.991 9.991 9.991z"></path>
<path fill="#03a66b" style="fill: var(--color1, #03a66b)" d="M12.609 16.648h2.949v-4.276c0-0.611 0.495-1.106 1.106-1.106s1.106 0.495 1.106 1.106v5.382c0 0.611-0.495 1.106-1.106 1.106h-4.055c-0.611 0-1.106-0.495-1.106-1.106s0.495-1.106 1.106-1.106z"></path>
<path fill="#03a66b" style="fill: var(--color1, #03a66b)" d="M22.265 24.932c0.454-0.409 1.154-0.372 1.562 0.082l3.318 3.687c0.409 0.454 0.372 1.153-0.082 1.562-0.211 0.191-0.476 0.284-0.739 0.284-0.303 0-0.604-0.123-0.823-0.366l-3.318-3.687c-0.409-0.454-0.372-1.153 0.082-1.562z"></path>
<path fill="#03a66b" style="fill: var(--color1, #03a66b)" d="M4.855 28.701l3.318-3.687c0.408-0.454 1.107-0.491 1.562-0.082s0.491 1.108 0.082 1.562l-3.318 3.687c-0.218 0.243-0.519 0.366-0.822 0.366-0.263 0-0.528-0.094-0.74-0.284-0.454-0.409-0.491-1.108-0.082-1.562z"></path>
<path fill="#03a66b" style="fill: var(--color1, #03a66b)" d="M22.453 3.065c2.198-2.152 5.74-2.149 7.896 0.008 1.073 1.072 1.659 2.491 1.651 3.996-0.008 1.486-0.597 2.877-1.659 3.918-0.215 0.21-0.494 0.315-0.774 0.315-0.283 0-0.566-0.108-0.782-0.324l-6.341-6.341c-0.209-0.209-0.325-0.493-0.324-0.788s0.121-0.578 0.332-0.785zM29.446 8.511c0.222-0.446 0.34-0.94 0.343-1.454 0.005-0.908-0.351-1.768-1.003-2.42-0.65-0.65-1.51-0.975-2.375-0.975-0.505 0-1.013 0.111-1.48 0.333l4.515 4.515z"></path>
<path fill="#03a66b" style="fill: var(--color1, #03a66b)" d="M1.651 3.073c2.157-2.156 5.699-2.16 7.897-0.008 0.211 0.207 0.331 0.489 0.332 0.784s-0.115 0.579-0.324 0.788l-6.341 6.341c-0.216 0.216-0.499 0.324-0.782 0.324-0.279 0-0.559-0.105-0.774-0.316-1.063-1.040-1.652-2.431-1.659-3.917-0.008-1.504 0.579-2.923 1.651-3.995zM2.555 8.511l4.515-4.515c-1.267-0.602-2.824-0.388-3.855 0.642-0.652 0.652-1.008 1.511-1.003 2.42 0.003 0.513 0.121 1.007 0.343 1.453z"></path>
</symbol>
<symbol id="ellipse-" viewBox="0 0 40 32">
<path fill="#f9ba45" style="fill: var(--color2, #f9ba45)" d="M37.502 31.706c1.355-2.448 2.215-5.14 2.531-7.92s0.080-5.596-0.693-8.286c-0.773-2.69-2.068-5.201-3.811-7.39s-3.901-4.013-6.349-5.369c-2.448-1.355-5.14-2.215-7.92-2.53s-5.596-0.080-8.286 0.693c-2.69 0.773-5.201 2.068-7.39 3.811s-4.013 3.901-5.369 6.349l7.474 4.138c0.812-1.467 1.905-2.759 3.216-3.804s2.816-1.82 4.427-2.283c1.611-0.463 3.298-0.604 4.964-0.415s3.278 0.704 4.745 1.516 2.759 1.905 3.804 3.216c1.044 1.312 1.82 2.816 2.283 4.427s0.604 3.298 0.415 4.964c-0.189 1.666-0.704 3.278-1.516 4.745l7.474 4.138z"></path>
</symbol>
<symbol id="checkout" viewBox="0 0 33 32">
<path d="M8.604 4.915v-1.116c0-1.413 1.147-2.559 2.563-2.559s2.563 1.146 2.563 2.559v1.116h0.526c0.29 0 0.526 0.235 0.526 0.525v3.806c0 0.29-0.235 0.525-0.526 0.525h-6.177c-0.29 0-0.526-0.235-0.526-0.525v-3.806c0-0.29 0.235-0.525 0.526-0.525h0.526zM9.13 4.915h4.074v-1.116c0-1.123-0.912-2.034-2.037-2.034s-2.037 0.911-2.037 2.034v1.116zM11.418 7.071c0.125-0.082 0.208-0.224 0.208-0.384 0-0.254-0.206-0.459-0.46-0.459s-0.46 0.206-0.46 0.459c0 0.161 0.083 0.302 0.208 0.384-0.007 0.024-0.011 0.049-0.011 0.075v0.525c0 0.145 0.118 0.262 0.263 0.262s0.263-0.117 0.263-0.262v-0.525c0-0.026-0.004-0.051-0.011-0.075z"></path>
<path d="M12.546 10.296v4.593c0 0.725 0.588 1.312 1.314 1.312h6.462l2.981 2.075c0.174 0.121 0.413-0.003 0.413-0.215v-1.859h0.657c0.726 0 1.314-0.588 1.314-1.312v-5.906c0-0.725-0.588-1.312-1.314-1.312h-9.068v1.575c0 0.58-0.471 1.050-1.051 1.050h-1.708zM15.7 10.034c0-0.145 0.118-0.262 0.263-0.262h6.308c0.145 0 0.263 0.117 0.263 0.262s-0.118 0.262-0.263 0.262h-6.308c-0.145 0-0.263-0.118-0.263-0.262zM15.7 11.871c0-0.145 0.118-0.262 0.263-0.262h6.308c0.145 0 0.263 0.117 0.263 0.262s-0.118 0.262-0.263 0.262h-6.308c-0.145 0-0.263-0.117-0.263-0.262zM15.963 13.446c-0.145 0-0.263 0.117-0.263 0.262s0.118 0.262 0.263 0.262h6.308c0.145 0 0.263-0.118 0.263-0.262s-0.118-0.262-0.263-0.262h-6.308z"></path>
</symbol>
<symbol id="pay" viewBox="0 0 37 32">
<path fill="#000" style="fill: var(--color3, #000)" d="M8.032 13.64c-0.139 0.101-0.166 0.291-0.060 0.423l2.998 3.738c0.106 0.133 0.305 0.158 0.445 0.057l3.12-2.269c0.139-0.101 0.166-0.291 0.060-0.423l-2.998-3.738c-0.106-0.133-0.305-0.158-0.445-0.057l-3.12 2.269zM12.777 15.879c0.307 0 0.555-0.237 0.555-0.529s-0.249-0.529-0.555-0.529c-0.307 0-0.555 0.237-0.555 0.529s0.249 0.529 0.555 0.529z"></path>
<path fill="#000" style="fill: var(--color3, #000)" d="M21.262 1.607c-1.19 0.529-1.903 0.075-1.903 0.075l0.774 1.769c0.055-0.021 0.115-0.033 0.177-0.033h1.586c0.037 0 0.073 0.004 0.107 0.012l0.765-1.748c0 0-0.703-0.433-1.507-0.075z"></path>
<path fill="#000" style="fill: var(--color3, #000)" d="M20.775 7.217c-0.080-0.073-0.119-0.174-0.119-0.304 0-0.139 0.041-0.25 0.124-0.333 0.086-0.082 0.201-0.131 0.343-0.147v0.96c-0.149-0.044-0.265-0.103-0.348-0.176z"></path>
<path fill="#000" style="fill: var(--color3, #000)" d="M21.79 8.743c-0.083 0.089-0.197 0.144-0.343 0.166v-0.965c0.149 0.044 0.264 0.103 0.343 0.176 0.083 0.070 0.124 0.168 0.124 0.295s-0.041 0.236-0.124 0.328z"></path>
<path fill="#000" style="fill: var(--color3, #000)" d="M17.143 9.352c0.168-2.291 2.312-4.562 2.875-5.122 0.081 0.060 0.183 0.096 0.293 0.096h1.586c0.090 0 0.174-0.024 0.246-0.065 0.582 0.581 2.511 2.648 2.847 4.822 0.134 0.867 0.032 1.551-0.234 2.076-0.167 0.063-0.323 0.123-0.47 0.182 0.023-0.029 0.044-0.059 0.063-0.090 0.196-0.304 0.247-0.696-0.039-1.007-0.258-0.28-0.717-0.406-1.302-0.406-0.224 0-0.488 0.032-0.76 0.071-0.119 0.017-0.237 0.035-0.357 0.054-0.168 0.026-0.34 0.052-0.524 0.077-0.62 0.084-1.248 0.134-1.786 0.031-0.274-0.052-0.579-0.145-0.921-0.257-0.076-0.025-0.154-0.051-0.234-0.077-0.271-0.090-0.561-0.186-0.858-0.272-0.138-0.040-0.28-0.078-0.424-0.113zM22.362 8.833c0.083-0.139 0.124-0.288 0.124-0.447 0-0.209-0.048-0.372-0.144-0.49-0.096-0.12-0.214-0.208-0.353-0.261-0.139-0.057-0.32-0.111-0.542-0.162v-1.027c0.116 0.029 0.209 0.082 0.279 0.162 0.070 0.076 0.109 0.163 0.119 0.261h0.607c-0.023-0.263-0.124-0.469-0.303-0.618-0.176-0.152-0.41-0.241-0.701-0.266v-0.385h-0.323v0.385c-0.312 0.029-0.564 0.13-0.756 0.304-0.192 0.171-0.289 0.388-0.289 0.651 0 0.209 0.048 0.374 0.144 0.494 0.099 0.12 0.219 0.209 0.358 0.266 0.139 0.054 0.32 0.108 0.542 0.162v1.046c-0.136-0.022-0.241-0.073-0.313-0.152-0.073-0.082-0.114-0.185-0.124-0.309h-0.607c0 0.26 0.096 0.469 0.289 0.627s0.444 0.252 0.756 0.28v0.385h0.323v-0.385c0.216-0.019 0.401-0.076 0.557-0.171 0.159-0.095 0.279-0.212 0.358-0.352z"></path>
<path fill="#000" style="fill: var(--color3, #000)" d="M14.521 14.747l-2.538-3.172c0.793-0.831 1.428-1.737 3.093-2.039s3.252 0.604 4.441 0.831c1.19 0.227 2.696-0.227 3.489-0.227 2.221 0 1.031 1.963-1.19 1.737s-3.093 0.227-2.141 0.378c0.952 0.151 1.983 0.378 2.934 0.076s1.824-0.831 4.124-1.51c1.84-0.544 2.247-0.025 2.221 0.302-1.586 0.906-5.107 2.9-6.503 3.625-1.745 0.906-1.428 1.057-3.727 0.378-1.84-0.544-3.569-0.478-4.203-0.378z"></path>
<path fill="#f54748" style="fill: var(--color4, #f54748)" d="M19.993 3.873c0-0.125 0.107-0.227 0.238-0.227h1.745c0.131 0 0.238 0.101 0.238 0.227s-0.107 0.227-0.238 0.227h-1.745c-0.131 0-0.238-0.101-0.238-0.227z"></path>
</symbol>
<symbol id="basket" viewBox="0 0 32 32">
<path d="M1.352 13.445c-0.098-0.39 0.198-0.768 0.6-0.768h28.096c0.402 0 0.697 0.378 0.6 0.768l-3.902 15.608c-0.138 0.551-0.632 0.937-1.2 0.937h-19.092c-0.567 0-1.062-0.386-1.2-0.937l-3.902-15.608zM17 18.167c0-0.552-0.448-1-1-1s-1 0.448-1 1v6.333c0 0.552 0.448 1 1 1s1-0.448 1-1v-6.333zM22.758 17.418c0.519 0.189 0.787 0.763 0.598 1.282l-2.166 5.951c-0.189 0.519-0.763 0.787-1.282 0.598s-0.787-0.763-0.598-1.282l2.166-5.951c0.189-0.519 0.763-0.787 1.282-0.598zM10.523 18.016c-0.189-0.519-0.763-0.787-1.282-0.598s-0.787 0.763-0.598 1.282l2.166 5.951c0.189 0.519 0.763 0.787 1.282 0.598s0.787-0.763 0.598-1.282l-2.166-5.951z"></path>
<path fill="none" stroke="#3c3737" style="stroke: var(--color5, #3c3737)" stroke-linejoin="round" stroke-linecap="round" stroke-miterlimit="4" stroke-width="2.6667" d="M24.667 14l-6.548-8.563c-1.067-1.396-3.169-1.396-4.237 0l-6.548 8.563"></path>
</symbol>
<symbol id="delivery" viewBox="0 0 45 32">
<path d="M31.543 13.639c-0.689 0-1.17-0.522-1.17-1.072s0.48-1.072 1.17-1.072c0.689 0 1.17 0.522 1.17 1.072s-0.481 1.072-1.17 1.072zM31.543 14.614c1.184 0 2.144-0.916 2.144-2.047s-0.96-2.047-2.144-2.047c-1.184 0-2.144 0.916-2.144 2.047s0.96 2.047 2.144 2.047z"></path>
<path d="M18.092 13.639c-0.689 0-1.17-0.522-1.17-1.072s0.48-1.072 1.17-1.072c0.689 0 1.17 0.522 1.17 1.072s-0.48 1.072-1.17 1.072zM18.092 14.614c1.184 0 2.144-0.916 2.144-2.047s-0.96-2.047-2.144-2.047c-1.184 0-2.144 0.916-2.144 2.047s0.96 2.047 2.144 2.047z"></path>
<path d="M14.713 1.553c-0.404 0-0.741 0.309-0.777 0.712l-0.091 1.043h2.103c0.215 0 0.39 0.175 0.39 0.39s-0.175 0.39-0.39 0.39h-2.172l-0.068 0.78h1.46c0.215 0 0.39 0.175 0.39 0.39s-0.175 0.39-0.39 0.39h-1.529l-0.068 0.78h2.572c0.215 0 0.39 0.175 0.39 0.39s-0.175 0.39-0.39 0.39h-2.64l-0.068 0.78h1.929c0.215 0 0.39 0.175 0.39 0.39s-0.175 0.39-0.39 0.39h-1.997l-0.268 3.051c-0.040 0.456 0.319 0.848 0.777 0.848h1.683c0-1.4 1.135-2.534 2.534-2.534s2.534 1.135 2.534 2.534h8.382c0-1.4 1.135-2.534 2.534-2.534s2.534 1.135 2.534 2.534h0.256c0.406 0 0.744-0.312 0.777-0.716l0.305-3.736c0.017-0.207-0.050-0.413-0.185-0.571l-2.479-2.892c-0.148-0.173-0.364-0.272-0.592-0.272h-2.877c-0.134 0-0.263-0.034-0.376-0.096l0.207-1.966c0.048-0.46-0.313-0.861-0.775-0.861h-13.624zM29.586 5.152c0.004-0.051 0.046-0.090 0.097-0.090h2.078c0.109 0 0.212 0.045 0.286 0.125l2.072 2.245c0.058 0.062 0.013 0.164-0.071 0.164h-4.546c-0.057 0-0.102-0.048-0.097-0.105l0.18-2.339zM19.865 5.346l0.075-0.416h-1.913l-0.575 3.251h0.533l0.253-1.436h1.076l0.075-0.412h-1.076l0.173-0.987h1.38zM22.301 5.149c-0.168-0.147-0.416-0.22-0.744-0.22h-1.123l-0.575 3.251h0.533l0.229-1.301h0.412l0.515 1.301h0.636l-0.566-1.347c0.265-0.062 0.474-0.181 0.627-0.356 0.156-0.175 0.253-0.366 0.29-0.575 0.012-0.081 0.019-0.142 0.019-0.182 0-0.234-0.084-0.424-0.253-0.571zM22.001 5.767c0 0.044-0.005 0.089-0.014 0.136-0.028 0.172-0.103 0.307-0.225 0.407-0.119 0.1-0.278 0.15-0.477 0.15h-0.589l0.197-1.113h0.589c0.175 0 0.304 0.037 0.388 0.112 0.087 0.072 0.131 0.175 0.131 0.309zM23.675 6.328l0.173-0.987h1.263l0.075-0.416h-1.797l-0.575 3.256h1.797l0.075-0.416h-1.263l0.182-1.025h1.123l0.070-0.412h-1.123zM26.129 6.328l0.173-0.987h1.263l0.075-0.416h-1.796l-0.575 3.256h1.796l0.075-0.416h-1.263l0.182-1.025h1.123l0.070-0.412h-1.123z"></path>
<path d="M12.049 2.528c-0.215 0-0.39 0.175-0.39 0.39s0.175 0.39 0.39 0.39h4.678c0.215 0 0.39-0.175 0.39-0.39s-0.175-0.39-0.39-0.39h-4.678zM10.49 4.088c-0.215 0-0.39 0.175-0.39 0.39s0.175 0.39 0.39 0.39h6.238c0.215 0 0.39-0.175 0.39-0.39s-0.175-0.39-0.39-0.39h-6.238zM10.88 6.037c0-0.215 0.175-0.39 0.39-0.39h5.458c0.215 0 0.39 0.175 0.39 0.39s-0.175 0.39-0.39 0.39h-5.458c-0.215 0-0.39-0.175-0.39-0.39zM9.71 7.206c-0.215 0-0.39 0.175-0.39 0.39s0.175 0.39 0.39 0.39h7.018c0.215 0 0.39-0.175 0.39-0.39s-0.175-0.39-0.39-0.39h-7.018z"></path>
</symbol>
<symbol id="plus" viewBox="0 0 32 32">
<path fill="#f54748" style="fill: var(--color4, #f54748)" d="M12.667 4.667h6.667c1.473 0 2.667 1.194 2.667 2.667v6.667c0 1.473-1.194 2.667-2.667 2.667h-6.667c-1.473 0-2.667-1.194-2.667-2.667v-6.667c0-1.473 1.194-2.667 2.667-2.667z"></path>
<path fill="#fff" style="fill: var(--color6, #fff)" d="M16.246 8.912c0-0.136-0.11-0.246-0.246-0.246s-0.246 0.11-0.246 0.246v1.842h-1.842c-0.136 0-0.246 0.11-0.246 0.246s0.11 0.246 0.246 0.246h1.842v1.842c0 0.136 0.11 0.246 0.246 0.246s0.246-0.11 0.246-0.246v-1.842h1.842c0.136 0 0.246-0.11 0.246-0.246s-0.11-0.246-0.246-0.246h-1.842v-1.842z"></path>
</symbol>
<symbol id="star" viewBox="0 0 30 32">
<path fill="#fdc55e" style="fill: var(--color7, #fdc55e)" d="M13.966 2.083c0.382-0.823 1.553-0.823 1.935 0l3.618 7.79c0.155 0.335 0.473 0.565 0.839 0.61l8.527 1.033c0.901 0.109 1.263 1.222 0.598 1.84l-6.291 5.848c-0.27 0.251-0.391 0.624-0.32 0.986l1.652 8.429c0.174 0.891-0.772 1.578-1.565 1.137l-7.506-4.176c-0.322-0.179-0.715-0.179-1.037 0l-7.506 4.176c-0.793 0.441-1.74-0.247-1.565-1.137l1.652-8.429c0.071-0.362-0.050-0.735-0.321-0.986l-6.291-5.848c-0.665-0.618-0.303-1.731 0.598-1.84l8.527-1.033c0.366-0.044 0.684-0.275 0.839-0.61l3.618-7.79z"></path>
</symbol>
<symbol id="curier" viewBox="0 0 32 32">
<path fill="#e53536" style="fill: var(--color8, #e53536)" d="M15.070 6.454c-0.769 0-1.394 0.625-1.394 1.394v0.496l0.93 0.465h0.93l0.93-0.465v-0.496c0-0.769-0.626-1.394-1.394-1.394z"></path>
<path fill="#f54748" style="fill: var(--color4, #f54748)" d="M16.465 8.344v-0.496c0-0.769-0.626-1.394-1.394-1.394v2.355h0.465l0.93-0.465z"></path>
<path fill="#454545" style="fill: var(--color9, #454545)" d="M8.067 20.46c0.215 1.061 1.2 1.859 2.324 1.859s2.14-0.799 2.355-1.859l-1.010-0.465h-3.024l-0.645 0.465z"></path>
<path fill="#fff" style="fill: var(--color6, #fff)" d="M10.391 21.39c-0.769 0-1.394-0.626-1.394-1.394s0.626-1.394 1.394-1.394c0.769 0 1.425 0.625 1.425 1.394s-0.656 1.394-1.425 1.394z"></path>
<path fill="#ed9f0f" style="fill: var(--color10, #ed9f0f)" d="M12.746 12.094h-2.82l-0.93 0.93v2.789l0.93 0.465h2.82l1.394-0.465v-2.51l-0.465-0.279-0.93-0.93z"></path>
<path fill="#fdc55e" style="fill: var(--color7, #fdc55e)" d="M8.997 11.164v1.859h4.679l0.465-0.241-0.465-0.224v-1.394h-4.679z"></path>
<path fill="#e53536" style="fill: var(--color8, #e53536)" d="M15.535 20.46h-7.468v-0.465c0-1.797 1.488-3.254 3.285-3.254l0.775-0.465h4.338v3.409l-0.93 0.775z"></path>
<path fill="#454545" style="fill: var(--color9, #454545)" d="M8.067 15.812h6.538v0.93h-6.538v-0.93z"></path>
<path fill="#5a5a5a" style="fill: var(--color11, #5a5a5a)" d="M17.859 18.164v1.748l-0.465 0.549h-1.859v-3.718h-0.93c-0.511 0-0.93-0.418-0.93-0.93v-2.324h2.789v1.394c0.511 0 0.93 0.418 0.93 0.93v1.859l0.465 0.493z"></path>
<path fill="#3d3d3d" style="fill: var(--color12, #3d3d3d)" d="M17.859 18.164v1.748l-0.465 0.549h-1.859v-3.718h-0.465v-3.254h1.394v1.394c0.511 0 0.93 0.418 0.93 0.93v1.859l0.465 0.493z"></path>
<path fill="#e53536" style="fill: var(--color8, #e53536)" d="M16.465 13.023v-0.465c0-0.769-0.626-1.394-1.394-1.394s-1.394 0.626-1.394 1.394v0.93c0 0.77 0.624 1.394 1.394 1.394h3.749c0.77 0 1.394-0.624 1.394-1.394v-0.465h-3.75z"></path>
<path fill="#f54748" style="fill: var(--color4, #f54748)" d="M20.214 13.488v-0.465h-3.75v-0.465c0-0.769-0.626-1.394-1.394-1.394v3.719h3.749c0.77 0 1.394-0.624 1.394-1.394z"></path>
<path fill="#ffdfa5" style="fill: var(--color13, #ffdfa5)" d="M15.535 8.809h-0.93l-0.93 0.465v0.465c0 0.769 0.626 1.425 1.394 1.425s1.394-0.656 1.394-1.425v-0.465l-0.93-0.465z"></path>
<path fill="#ffa7a8" style="fill: var(--color14, #ffa7a8)" d="M16.465 9.738v-0.465l-0.93-0.465h-0.465v2.355c0.769 0 1.394-0.656 1.394-1.425z"></path>
<path fill="#5a5a5a" style="fill: var(--color11, #5a5a5a)" d="M15.070 8.344h-1.394v0.93h3.718v-0.93h-2.324z"></path>
<path fill="#3d3d3d" style="fill: var(--color12, #3d3d3d)" d="M15.070 8.344h2.324v0.93h-2.324v-0.93z"></path>
<path fill="#f54748" style="fill: var(--color4, #f54748)" d="M21.495 15.916c-0.051-0.362-0.153-1.074-0.356-2.494l-1.855-0.864v3.718c0 0.733-0.632 1.394-1.425 1.394h-0.465v2.789h5.609l0.93-0.465v-0.93c0-1.487-1.026-2.783-2.438-3.15z"></path>
<path fill="#e53536" style="fill: var(--color8, #e53536)" d="M22.074 13.953h-1.394c-0.769 0-1.394-0.626-1.394-1.394s0.626-1.394 1.394-1.394h1.394v2.789z"></path>
<path fill="#3d3d3d" style="fill: var(--color12, #3d3d3d)" d="M21.748 17.685l-0.135 0.517-0.786-0.386c-0.896 0.323-1.543 1.173-1.543 2.179 0 1.281 1.043 2.324 2.324 2.324s2.324-1.043 2.324-2.324c0-1.234-0.969-2.236-2.184-2.31z"></path>
<path fill="#fff" style="fill: var(--color6, #fff)" d="M21.609 18.601c-0.769 0-1.394 0.625-1.394 1.394s0.625 1.394 1.394 1.394c0.769 0 1.394-0.626 1.394-1.394s-0.626-1.394-1.394-1.394z"></path>
<path fill="#a3a3a3" style="fill: var(--color15, #a3a3a3)" d="M22.069 19.929l-0.321-2.244c-0.047-0.003-0.092-0.014-0.14-0.014-0.275 0-0.536 0.057-0.781 0.145l0.321 2.245 0.921-0.132z"></path>
</symbol>
<symbol id="appstore" viewBox="0 0 32 32">
<path fill="#2e2e2e" style="fill: var(--color16, #2e2e2e)" d="M7.413 0.574h16.727c4.017 0 7.273 3.256 7.273 7.273v16.727c0 4.017-3.256 7.273-7.273 7.273h-16.727c-4.017 0-7.273-3.256-7.273-7.273v-16.727c0-4.017 3.256-7.273 7.273-7.273z"></path>
<path fill="#fff" style="fill: var(--color6, #fff)" d="M20.28 16.302c-0.008-1.312 0.603-2.3 1.837-3.029-0.69-0.962-1.734-1.49-3.11-1.592-1.303-0.1-2.728 0.738-3.25 0.738-0.552 0-1.813-0.704-2.805-0.704-2.048 0.031-4.224 1.588-4.224 4.758 0 0.936 0.176 1.904 0.528 2.9 0.47 1.311 2.167 4.525 3.936 4.473 0.925-0.021 1.579-0.638 2.783-0.638 1.168 0 1.773 0.638 2.805 0.638 1.785-0.025 3.319-2.946 3.766-4.261-2.394-1.098-2.265-3.215-2.265-3.283zM18.202 10.437c1.002-1.158 0.911-2.211 0.882-2.59-0.886 0.050-1.91 0.586-2.493 1.246-0.642 0.708-1.020 1.583-0.939 2.569 0.957 0.071 1.831-0.408 2.55-1.225z"></path>
</symbol>
<symbol id="google-store" viewBox="0 0 24 32">
<path fill="#2e2e2e" style="fill: var(--color16, #2e2e2e)" d="M22.936 13.679c1.655 1.129 1.655 3.57 0 4.699l-18.488 12.618c-1.888 1.289-4.448-0.064-4.448-2.349v-25.235c0-2.286 2.56-3.638 4.448-2.349l18.488 12.618z"></path>
<path fill="#fbf9ff" style="fill: var(--color17, #fbf9ff)" d="M8.593 25.95l14.188-10.158-5.396-3.736-8.793 13.893z"></path>
<path fill="#fbf9ff" style="fill: var(--color17, #fbf9ff)" d="M15.587 10.811l-6.794-4.704 4.596 8.032 2.198-3.327z"></path>
</symbol>
<symbol id="cart" viewBox="0 0 32 32">
<path fill="#f54748" style="fill: var(--color1, #f54748)" d="M0 6.667c0-3.682 2.985-6.667 6.667-6.667h18.667c3.682 0 6.667 2.985 6.667 6.667v18.667c0 3.682-2.985 6.667-6.667 6.667h-18.667c-3.682 0-6.667-2.985-6.667-6.667v-18.667z"></path>
<path fill="#fff" style="fill: var(--color2, #fff)" d="M14.030 22.556c0.477 0 0.863-0.403 0.863-0.899s-0.387-0.899-0.863-0.899c-0.477 0-0.863 0.403-0.863 0.899s0.387 0.899 0.863 0.899z"></path>
<path fill="#fff" style="fill: var(--color2, #fff)" d="M18.865 22.556c0.477 0 0.863-0.403 0.863-0.899s-0.387-0.899-0.863-0.899c-0.477 0-0.863 0.403-0.863 0.899s0.387 0.899 0.863 0.899z"></path>
<path fill="#fff" style="fill: var(--color2, #fff)" d="M21.417 11.864h-9.439l-0.797-2.214c-0.105-0.292-0.282-0.541-0.509-0.716s-0.494-0.268-0.767-0.267h-0.945c-0.368 0-0.667 0.298-0.667 0.667v0.265c0 0.368 0.298 0.667 0.667 0.667h0.945l3.276 9.101c0.107 0.297 0.359 0.492 0.638 0.492h5.525c0.288 0 0.546-0.207 0.647-0.518l2.072-6.395c0.039-0.121 0.052-0.251 0.038-0.379s-0.054-0.25-0.118-0.356c-0.064-0.106-0.148-0.193-0.247-0.253s-0.209-0.092-0.32-0.092zM18.942 16.461h-1.669v1.499h-1.209v-1.499h-1.727v-1.399h1.727v-1.599h1.209v1.599h1.669v1.399z"></path>
</symbol>
<symbol id="arrow" viewBox="0 0 32 32">
<path d="M6 4l20 12-20 12z"></path>
</symbol>
<symbol id="mob-menu-button" viewBox="0 0 32 32">
<path d="M2.666 8c0-0.354 0.14-0.693 0.391-0.943s0.589-0.391 0.943-0.391h24c0.354 0 0.693 0.14 0.943 0.391s0.39 0.589 0.39 0.943c0 0.354-0.14 0.693-0.39 0.943s-0.589 0.391-0.943 0.391h-24c-0.354 0-0.693-0.14-0.943-0.391s-0.391-0.589-0.391-0.943zM2.666 16.043c0-0.354 0.14-0.693 0.391-0.943s0.589-0.39 0.943-0.39h24c0.354 0 0.693 0.14 0.943 0.39s0.39 0.589 0.39 0.943c0 0.354-0.14 0.693-0.39 0.943s-0.589 0.39-0.943 0.39h-24c-0.354 0-0.693-0.14-0.943-0.39s-0.391-0.589-0.391-0.943zM4 22.752c-0.354 0-0.693 0.141-0.943 0.39s-0.391 0.589-0.391 0.943 0.14 0.693 0.391 0.943c0.25 0.25 0.589 0.39 0.943 0.39h24c0.354 0 0.693-0.14 0.943-0.39s0.39-0.589 0.39-0.943c0-0.354-0.14-0.693-0.39-0.943s-0.589-0.39-0.943-0.39h-24z"></path>
</symbol>
<symbol id="close-button" viewBox="0 0 32 32">
<path d="M23.734 10.304l-1.504-1.504-5.963 5.962-5.962-5.962-1.504 1.504 5.962 5.962-5.962 5.963 1.504 1.504 5.962-5.963 5.963 5.963 1.504-1.504-5.963-5.963 5.963-5.962z"></path>
</symbol>
</defs>
</svg>
